<?xml version="1.0" encoding="utf-8"?>
<!-- Generator: Adobe Illustrator 17.1.0, SVG Export Plug-In . SVG Version: 6.00 Build 0)  -->
<!DOCTYPE svg PUBLIC "-//W3C//DTD SVG 1.1//EN" "http://www.w3.org/Graphics/SVG/1.1/DTD/svg11.dtd">
<svg version="1.1" id="Ebene_1" xmlns="http://www.w3.org/2000/svg" xmlns:xlink="http://www.w3.org/1999/xlink" x="0px" y="0px"
	 viewBox="0 287.7 592 176" enable-background="new 0 287.7 592 176" xml:space="preserve">
<g>
	<path fill="#571211" d="M204.8,351.2c26.6,0,12.6,29.8-1.5,18.6c9.3,0.9,11.3-14.9,1.8-14.6c-5.3,0.1-8.4,4.5-9.3,8.6
		c-2.6,11.9,12,17.3,12,30.5c0,9.5-8.4,17.9-21.3,17.9c-26.6,0-12.6-33.1,1.5-21.9c-9.3-1-11.1,15.1-1.1,15.3
		c5.1,0,10.1-3.6,10.1-9.3c0-9.3-14.3-14.7-10.8-30.6C188.2,356.8,195.3,351.2,204.8,351.2z"/>
	<path fill="#571211" d="M253.8,396.8c-3.8,6.7-8.9,12.5-16,12.5c-3.9,0-7.7-1.7-8.6-5.1c-2.9,3.1-6.4,5.1-10.7,5.1
		c-5.2,0-10.5-3.3-8.1-9.3c2.8-7.1,13.1-29.5,13.1-29.5l8.3,4c0,0-8.4,17.4-11.9,27.5c-0.5,2-0.1,3.9,3.3,3.1
		c2.2-0.5,4.5-2.7,6.5-5.2c2.9-7.2,13.1-29.4,13.1-29.4l8.3,4c0,0-8.4,17.4-11.9,27.5c-0.5,2,0,3.9,3.3,3.1c3.3-0.8,7-5.5,9.4-9.1
		L253.8,396.8z"/>
	<path fill="#571211" d="M280.3,394.5c-5.5,10.6-10.5,14.9-18.4,14.9c-3,0-5.1-1.4-6.3-3.7c-2.5,5.7-4.9,11.2-6.7,15.7l-8.4-4
		c7.2-16.4,20.7-46.7,20.7-46.7l8.3,3.9c0,0-0.4,0.9-1,2.4c2-2.7,4.1-5.2,5.3-5.9c1.4-0.9,2.6-0.2,3.4,0.2c3.4,1.6,4.1,1.9,5.8,2.7
		C286.9,375.8,284.3,387,280.3,394.5z M275,376.8c-1.2-0.9-6.7,3.7-11,10.2c-1.2,2.6-2.5,5.6-3.8,8.7c-3.6,10.1,1.5,9.1,4.1,6.8
		C273.3,394.5,277.1,378.4,275,376.8z"/>
	<path fill="#571211" d="M314.9,394.5c-5.5,10.6-10.5,14.9-18.4,14.9c-3,0-5.1-1.4-6.3-3.7c-2.5,5.7-4.9,11.2-6.7,15.7l-8.4-4
		c7.2-16.4,20.7-46.7,20.7-46.7l8.3,3.9c0,0-0.4,0.9-1,2.4c2-2.7,4.1-5.2,5.3-5.9c1.4-0.9,2.6-0.2,3.4,0.2c3.4,1.6,4.1,1.9,5.8,2.7
		C321.5,375.8,318.9,387,314.9,394.5z M309.6,376.8c-1.2-0.9-6.7,3.7-11,10.2c-1.2,2.6-2.5,5.6-3.8,8.7c-3.6,10.1,1.5,9.1,4.1,6.8
		C308,394.5,311.7,378.4,309.6,376.8z"/>
	<path fill="#571211" d="M350.8,396.8c-4.3,7.8-11.2,12.6-20.8,12.6c-5.5,0-15.3-4.2-10.7-17.6c5-14.3,14.8-19.8,18.9-21.5
		c1.2-0.5,2.3-0.4,3.5,0.1c2.2,0.9,8.4,4.4,8.4,4.4s0,17.8-21.8,21.3c-2.7,13.5,13.9,10,20.6-0.4L350.8,396.8z M329.5,391.7
		c10.3-3.8,15-11.9,14.1-14.2C339.3,378.5,332.8,383.7,329.5,391.7z"/>
	<path fill="#571211" d="M390.1,396.8c-3.8,6.7-8.9,12.5-16,12.5c-5.3,0-10.5-3.3-8.1-9.3c1.6-4.1,5.7-13.3,8.9-20.3
		c1.5-3.4-5.5-2.1-13.9,10.6v-0.2c-1.8,4.1-3.5,8.4-4.6,11.8c-1.5,4.3-2.2,6.4-2.2,7.4c-5-0.4-9.6-3.6-7.3-9.3
		c2.8-7.1,13.2-29.5,13.2-29.5l8.2,4c0,0-0.8,1.6-1.9,4.1c5-5,11.5-9.5,13.9-7.7c0.1,0.1,6.5,5.1,5.3,7.6c-2.7,5.7-7.5,16.4-10,23.5
		c-0.5,2-0.1,3.9,3.3,3.1c3.3-0.8,7.1-5.5,9.4-9.1L390.1,396.8z"/>
	<path fill="#571211" d="M406.2,395.9l2,0.9c-3.8,6.7-8.9,12.5-16.1,12.5c-5.2,0-10.5-3.3-8.1-9.3c1-2.6,3.6-8.4,6.4-14.7h-3.6
		l1.4-3.2h3.6c4.7-10.5,9.8-21.6,9.8-21.6l8.2,4c0,0-4,8.4-8.1,17.7h3.6l-1.4,3.2h-3.6c-2.8,6.4-5.5,12.8-6.8,16.7
		c-0.5,2-0.1,3.9,3.3,3.1C400.1,404.3,403.8,399.6,406.2,395.9z"/>
	<path fill="#571211" d="M437.5,396.8c-4.3,7.8-11.2,12.6-20.8,12.6c-5.5,0-15.3-4.2-10.7-17.6c5-14.3,14.8-19.8,18.9-21.5
		c1.2-0.5,2.3-0.4,3.5,0.1c2.2,0.9,8.4,4.4,8.4,4.4s0,17.8-21.8,21.3c-2.7,13.5,13.9,10,20.6-0.4L437.5,396.8z M416.3,391.7
		c10.3-3.8,15-11.9,14.1-14.2C426.1,378.5,419.6,383.7,416.3,391.7z"/>
	<path fill="#571211" d="M496.1,396.8c-3.8,6.7-8.9,12.5-16,12.5c-5.3,0-10.5-3.3-8.1-9.3c1.6-4.1,5.7-13.3,9-20.3
		c1.5-3.4-5.6-2.1-14,10.6v-0.1c-1.7,4.1-3.5,8.3-4.6,11.7c-0.4,1.3-1.5,5.1-1.2,7.4c-0.1,0-0.2,0-0.2,0c-5.3,0-10.5-3.3-8.1-9.3
		c1.6-4.1,5.7-13.3,8.9-20.3c1.5-3.4-5.5-2.1-13.9,10.6v-0.2c-1.8,4.1-3.5,8.4-4.6,11.8c-1.5,4.3-2.2,6.4-2.2,7.4
		c-5-0.4-9.6-3.6-7.3-9.3c2.8-7.1,13.2-29.5,13.2-29.5l8.2,4c0,0-0.8,1.6-1.9,4.1c5-5,11.5-9.5,13.9-7.7c0.1,0.1,6.5,5.1,5.3,7.6
		l-0.1,0.1c5-5,11.5-9.5,13.9-7.7c0.1,0.1,6.5,5.1,5.3,7.6c-2.7,5.7-7.5,16.4-10,23.5c-0.5,2-0.1,3.9,3.3,3.1
		c3.3-0.8,7.1-5.5,9.5-9.1L496.1,396.8z"/>
	<path fill="#571211" d="M522.6,394.5c-5.5,10.6-10.5,14.9-18.4,14.9c-3,0-5.1-1.4-6.3-3.7c-2.5,5.7-4.9,11.2-6.7,15.7l-8.4-4
		c7.2-16.4,20.7-46.7,20.7-46.7l8.3,3.9c0,0-0.4,0.9-1,2.4c2-2.7,4.1-5.2,5.3-5.9c1.4-0.9,2.6-0.2,3.4,0.2c3.4,1.6,4.1,1.9,5.8,2.7
		C529.2,375.8,526.6,387,522.6,394.5z M517.3,376.8c-1.2-0.9-6.7,3.7-11,10.2c-1.2,2.6-2.5,5.6-3.8,8.7c-3.6,10.1,1.5,9.1,4.1,6.8
		C515.7,394.5,519.4,378.4,517.3,376.8z"/>
	<path fill="#571211" d="M558.4,396.8c-4.3,7.8-11.2,12.6-20.8,12.6c-5.5,0-15.3-4.2-10.7-17.6c5-14.3,14.8-19.8,18.9-21.5
		c1.2-0.5,2.3-0.4,3.5,0.1c2.2,0.9,8.4,4.4,8.4,4.4s0,17.8-21.8,21.3c-2.7,13.5,13.9,10,20.6-0.4L558.4,396.8z M537.2,391.7
		c10.3-3.8,15-11.9,14.1-14.2C547,378.5,540.5,383.7,537.2,391.7z"/>
	<path fill="#571211" d="M578.7,396.8c-3.8,6.7-8.9,12.5-16.1,12.5c-5.2,0-10.5-3.3-8.1-9.3c2.8-7.1,18.8-41.9,18.8-41.9l8.2,3.9
		c0,0-14,29.8-17.5,40c-0.5,2-0.1,3.9,3.3,3.1c3.3-0.8,7-5.5,9.4-9.1L578.7,396.8z"/>
</g>
<g>
	<path fill="#571211" d="M238.2,769v-36.2h2V769H238.2z"/>
	<path fill="#571211" d="M247,756.6c0.2,6.6,2.9,11,6.8,11c3.1,0,6.3-2.4,7.9-3.7l1.3,1.5c-1.9,1.4-5.3,4.1-9.2,4.1
		c-4.9,0-9-4.7-9-13.6c0-8.9,4.1-13.6,9.5-13.6c5.6,0,8.5,4.7,8.5,11.1c0,1.8-0.2,3.2-0.2,3.2L247,756.6L247,756.6z M247,754.8h13.8
		c0.1-7.5-2.5-10.6-6.5-10.6C249.9,744.2,247.3,748.4,247,754.8z"/>
	<path fill="#571211" d="M267,732.9h2.4v3.9H267V732.9z M267.2,769v-26.1h2V769L267.2,769L267.2,769z"/>
	<path fill="#571211" d="M276.8,746.7c1.6-1.9,4.3-4.3,7.7-4.3c4.3,0,8,3.7,8,13.6c0,9.9-3.8,13.6-8,13.6c-3.5,0-6.2-2.4-7.7-4.3
		v13.9h-2v-36.2h2V746.7z M276.8,749v13.9c1.7,2.4,4.5,4.8,7.6,4.8c4,0,6-4.5,6-11.7c0-7.2-2-11.7-6-11.7
		C281.3,744.2,278.4,746.6,276.8,749z"/>
	<path fill="#571211" d="M294.7,767l13.6-22.2h-13.2v-1.9h15.5v1.9l-13.6,22.2h13.6v1.9h-16L294.7,767L294.7,767z"/>
	<path fill="#571211" d="M314.3,732.9h2.4v3.9h-2.4V732.9z M314.5,769v-26.1h2V769L314.5,769L314.5,769z"/>
	<path fill="#571211" d="M338.7,742.9v28.5c0,6.5-3.5,8.2-7.5,8.2c-2.6,0-6.4-0.7-9.3-1.7l0.6-2c3.2,1.1,6.3,1.8,8.6,1.8
		c3.5,0,5.6-1.8,5.6-6.3v-6.2c-1.6,1.9-4.3,4.3-7.7,4.3c-4.3,0-8-3.7-8-13.6c0-9.9,3.7-13.6,8-13.6c3.5,0,6.1,2.4,7.7,4.3v-3.8
		H338.7z M336.7,762.8V749c-1.7-2.4-4.6-4.8-7.6-4.8c-4,0-6,4.5-6,11.7c0,7.1,2,11.7,6,11.7C332.1,767.6,334.9,765.3,336.7,762.8z"
		/>
</g>
<text transform="matrix(1 0 0 1 -317.7798 1038.1252)" fill="#4F1F16" font-family="'Prada'" font-size="160.5714" letter-spacing="-1">Suppentempel</text>
<text transform="matrix(1 0 0 1 -76.2985 1095.4524)" fill="#ED8430" font-family="'VerbExCondExtralight'" font-size="56.6626" letter-spacing="-2">suppe für die seele</text>
<g>
	<path fill="#571211" d="M153.3,387.6c1.5-2.4,3.3-5.2,3.3-10.4c0-5.2-1.8-8-3.3-10.4c-0.9-1.5-1.8-2.8-2.2-4.6
		c-0.4-1.8-0.1-3.3,0.2-5c0.5-2.7,1.1-5.8-0.9-10.5c-2-4.7-4.6-6.4-6.9-7.9c-1.4-0.9-2.7-1.8-3.6-3.2c-1-1.4-1.3-2.9-1.6-4.6
		c-0.5-2.6-1.1-5.7-4.7-9.2c-3.6-3.6-6.6-4.2-9.2-4.7c-1.7-0.3-3.1-0.6-4.6-1.6c-1.4-1-2.2-2.2-3.2-3.6c-1.5-2.3-3.2-4.9-7.9-6.9
		c-2.2-0.9-4.3-1.4-6.4-1.4c-1.5,0-2.8,0.2-4.1,0.5c-1.1,0.2-2.2,0.4-3.3,0.4c-0.6,0-1.2-0.1-1.7-0.2c-1.7-0.4-3.1-1.2-4.6-2.2
		c-2.4-1.5-5.2-3.3-10.4-3.3c-5.2,0-8,1.8-10.4,3.3c-1.5,0.9-2.8,1.8-4.6,2.2c-0.6,0.1-1.1,0.2-1.7,0.2c-1.1,0-2.2-0.2-3.3-0.4
		c-1.3-0.2-2.6-0.5-4.1-0.5c-2.1,0-4.1,0.5-6.4,1.4c-4.7,2-6.4,4.6-7.9,6.9c-0.9,1.4-1.8,2.7-3.2,3.6c-1.4,1-2.9,1.3-4.6,1.6
		c-2.6,0.5-5.7,1.1-9.2,4.7c-3.6,3.6-4.2,6.6-4.7,9.2c-0.3,1.7-0.6,3.1-1.6,4.6c-1,1.4-2.2,2.2-3.6,3.2c-2.3,1.5-4.9,3.2-6.9,7.9
		c-2,4.7-1.4,7.8-0.9,10.5c0.3,1.7,0.6,3.2,0.2,5c-0.4,1.7-1.2,3.1-2.2,4.6c-1.5,2.4-3.3,5.2-3.3,10.4c0,5.2,1.8,8,3.3,10.4
		c0.9,1.5,1.8,2.8,2.2,4.6c0.4,1.8,0.1,3.3-0.2,5c-0.5,2.7-1.1,5.8,0.9,10.5c2,4.7,4.6,6.4,6.9,7.9c1.4,0.9,2.7,1.8,3.6,3.2
		c1,1.4,1.3,2.9,1.6,4.6c0.5,2.6,1.1,5.7,4.7,9.2c3.6,3.6,6.6,4.2,9.2,4.7c1.7,0.3,3.1,0.6,4.6,1.6c1.4,1,2.2,2.2,3.2,3.6
		c1.5,2.3,3.2,4.9,7.9,6.9c2.2,0.9,4.3,1.4,6.4,1.4c1.5,0,2.8-0.2,4.1-0.5c1.1-0.2,2.2-0.4,3.3-0.4c0.6,0,1.2,0.1,1.7,0.2
		c1.7,0.4,3.1,1.2,4.6,2.2c2.4,1.5,5.2,3.3,10.4,3.3c5.2,0,8-1.8,10.4-3.3c1.5-0.9,2.8-1.8,4.6-2.2c0.6-0.1,1.1-0.2,1.7-0.2
		c1.1,0,2.2,0.2,3.3,0.4c1.3,0.2,2.6,0.5,4.1,0.5c2.1,0,4.1-0.5,6.4-1.4c4.7-2,6.4-4.6,7.9-6.9c0.9-1.4,1.8-2.7,3.2-3.6
		c1.4-1,2.9-1.3,4.6-1.6c2.6-0.5,5.7-1.1,9.2-4.7c3.6-3.6,4.2-6.6,4.7-9.2c0.3-1.7,0.6-3.1,1.6-4.6c1-1.4,2.2-2.2,3.6-3.2
		c2.3-1.5,4.9-3.2,6.9-7.9c2-4.7,1.4-7.8,0.9-10.5c-0.3-1.7-0.6-3.2-0.2-5C151.5,390.4,152.4,389,153.3,387.6z"/>
	<path fill-rule="evenodd" clip-rule="evenodd" fill="#FFD000" d="M94,301.1c8.1,1.7,9,6.4,13.5,8.3c4.5,1.9,8.3-0.8,14.9,3.8
		c6.6,4.6,5.4,9,8.7,12.4c3.3,3.4,7.8,2.2,12.2,8.9c4.4,6.7,1.5,10.3,3.3,14.7s6.4,5,8,12.9c1.6,7.9-2.4,10.3-2.4,15.2
		c0,4.9,4,7.6,2.3,15.7c-1.7,8.1-6.4,9-8.3,13.5c-1.9,4.5,0.8,8.3-3.8,14.9c-4.6,6.6-9,5.4-12.4,8.7c-3.4,3.3-2.2,7.8-8.9,12.2
		c-6.7,4.4-10.3,1.5-14.7,3.3c-4.4,1.8-5,6.4-12.9,8c-7.9,1.6-10.3-2.4-15.2-2.4c-4.9,0-7.6,4-15.7,2.3c-8.1-1.7-9-6.4-13.5-8.3
		c-4.5-1.9-8.3,0.8-14.9-3.8c-6.6-4.6-5.4-9-8.7-12.4c-3.3-3.4-7.8-2.2-12.2-8.9c-4.4-6.7-1.5-10.3-3.3-14.7c-1.8-4.4-6.4-5-8-12.9
		c-1.6-7.9,2.4-10.3,2.4-15.2c0-4.9-4-7.6-2.3-15.7c1.7-8.1,6.4-9,8.3-13.5c1.9-4.5-0.8-8.3,3.8-14.9c4.6-6.6,9-5.4,12.4-8.7
		c3.4-3.3,2.2-7.8,8.9-12.2c6.7-4.4,10.3-1.5,14.7-3.3c4.4-1.8,5-6.4,12.9-8c7.9-1.6,10.3,2.4,15.2,2.4
		C83.3,303.4,86,299.4,94,301.1z"/>
	<g>
		<g>
			
				<path fill="none" stroke="#571211" stroke-width="2.0813" stroke-linecap="round" stroke-linejoin="round" stroke-dasharray="1.5595,4.6786" d="
				M92.5,308.7c7.3,1.5,8.1,5.8,12.1,7.5c4.1,1.7,7.5-0.7,13.4,3.4c6,4.1,4.8,8.1,7.8,11.2c3,3,7,1.9,10.9,8c4,6,1.4,9.3,3,13.2
				s5.8,4.5,7.2,11.6c1.4,7.1-2.2,9.3-2.2,13.7c0,4.4,3.6,6.8,2.1,14.1c-1.5,7.3-5.8,8.1-7.5,12.1c-1.7,4.1,0.7,7.5-3.4,13.4
				c-4.1,6-8.1,4.8-11.2,7.8c-3,3-1.9,7-8,10.9c-6,4-9.3,1.4-13.2,3c-3.9,1.6-4.5,5.8-11.6,7.2c-7.1,1.4-9.3-2.2-13.7-2.2
				c-4.4,0-6.8,3.6-14.1,2.1c-7.3-1.5-8.1-5.8-12.1-7.5c-4.1-1.7-7.5,0.7-13.4-3.4c-6-4.1-4.8-8.1-7.8-11.2c-3-3-7-1.9-10.9-8
				c-4-6-1.4-9.3-3-13.2c-1.6-3.9-5.8-4.5-7.2-11.6c-1.4-7.1,2.2-9.3,2.2-13.7c0-4.4-3.6-6.8-2.1-14.1c1.5-7.3,5.8-8.1,7.5-12.1
				c1.7-4.1-0.7-7.5,3.4-13.4c4.1-6,8.1-4.8,11.2-7.8c3-3,1.9-7,8-10.9c6-4,9.3-1.4,13.2-3c3.9-1.6,4.5-5.8,11.6-7.2
				c7.1-1.4,9.3,2.2,13.7,2.2C82.8,310.8,85.2,307.2,92.5,308.7z"/>
		</g>
	</g>
	<g>
		<path fill="#571211" d="M79.4,347.2c0-2.5-1.9-5-5.6-5c-7,0-11,8.2-13.6,8.3c-2,0-5.5-7.6-5.5-9.2c0-1.6,9-8.6,19.3-8.6
			c7.1,0,15.3,2.9,15.3,12.9c0,8-3.5,10.9-4.1,12c-0.2,0.3-0.3,0.7,0.3,1c0.4,0.2,4.8,0,4.9-1.3c0.1-0.7-2-16.9,13.1-16.9
			c14.2,0,15.5,13.1,15.5,16.7c0,28.4-24.4,16-24.9,13.9c-0.5-2,1.5-5.8,2.8-6c2.5-0.5,13.1,7.3,13.1-6.2c0-6.6-3.4-9.2-6.7-9.2
			c-7,0-6.5,8.9-6.5,9.9c0,4.6-9.1,2.7-8.4,4.4c5.7,14.1,2.3,18.7,5.1,18.7c2.8,0,38.1,0,38.9,0l0,0c0.5,0,1-0.3,1.5-0.6l0,0
			c0.5-0.3,1-0.8,1.6-0.8l0,0c0.7,0,1.4,0.5,2.1,1.6l0,0c0.5,0.7,0.7,1.3,0.7,1.8l0,0c0,1.2-0.9,1.9-1.7,2.5l0,0
			c-0.8,0.6-1.6,1.2-1.8,1.9l0,0c-2.7,10.6-17.3,16.4-17.3,18.3c0,1.3,1.5,1.8,1.5,2.7c0,1.3-1.7,2-1.8,2H39c-0.1,0-1.5-0.7-1.5-2
			c0-1,1.5-1.4,1.5-2.7c0-1.8-14.5-7.7-17.3-18.4l0,0c-0.1-0.6-0.9-1.2-1.8-1.9l0,0c-0.8-0.6-1.7-1.4-1.7-2.5l0,0
			c0-0.6,0.2-1.2,0.7-1.8l0,0c0.8-1.1,1.4-1.5,2.1-1.5l0,0c0.7,0,1.2,0.4,1.7,0.8l0,0c0.5,0.4,0.9,0.7,1.5,0.7l0,0
			c0.7,0,23.4,0,25.1,0c0,0,1.6,0,1.1-1.6c-2.3-7.7-7-8.3-6.9-9.4c0.1-2.4,4.9-9,8.4-7.8c3.6,1.3,5.2,22.6,18.3,22.6
			c7,0,14-3.8,14-14.6c0-4.8-3.1-9.5-3.6-9.6c-0.9-0.3-3.2,2.5-4.4,2.1c-1.5-0.5-4.1-3.8-4.1-6C72.1,356.9,79.4,353.5,79.4,347.2z
			 M116.2,408.9c0-0.6-1.1-0.9-0.9-1.9c0.3-1.9,11.8-6.5,17.1-18.5c0.8-1.7,5.4-2.8,3.7-4.8c-1.4-1.7-1.8,0.5-3.6,0.7
			c0,0-40.6,0-40.6,0s-1.5-0.3-1.7-1.9c-0.1-1.4,1.6-8.5-3.6-19.6c-0.8-1.6,9.2-0.5,9.2-4c0-0.8-1.1-11.2,7.5-11.2
			c4.2,0,7.8,3.2,7.8,11c0,15.4-11.7,7.9-13.6,7.9c-1.2,0-2.5,3.2-1.6,4.1c3,3,21.6,11.1,21.6-13.6c0-3.5,0.1-15.4-13.9-15.4
			c-13.5,0-11.1,14.9-11,16.5c0.1,1.5-7,2.3-7.4,1.8c-1-1.5-1.4-1.9-1.5-2.2c0-0.1,0.1-0.3,0.1-0.3c2.7-3.1,4.3-6,4.3-11.9
			c0-6.5-5.9-11.7-13.9-11.7c-7.4,0-16.4,5.6-17.1,8.1c-0.4,1.4,2.5,6.5,3.8,6.4c2.5-0.2,6.4-7.8,13.1-7.8c4.7,0,7,2.6,7.1,6.3
			c0,5.7-6.8,11.1-7,12c-0.2,1.5,1.6,3.9,2.7,3.7c1.5-0.2,3.1-1.7,3.9-2.3c1-0.8,5,6.9,5,11.7c0,9.7-4.4,17.1-15.4,17.1
			c-14,0-15.3-21.7-19.3-23.2c-1.4-0.6-6.3,5.2-5.4,5.8c3.3,2.4,6.2,7.6,6.9,10.2c0.7,2.5-1.2,2.7-1.2,2.7h-27
			c-1.8-0.2-2.5-2.6-3.8-1.3c-2.3,2.2,2.2,2.2,3.3,4.9c4.1,10.3,17,17,17.5,18.8c0.3,1.2-0.6,1.4-0.6,2.1c0,0.7,0.8,1,0.8,1h74
			C115.3,409.9,116.2,409.7,116.2,408.9z"/>
		<path fill="#571211" d="M84.7,331.1c-0.1-0.7,0.9-1.5,1.6-1.3c0.8,0.1,5.6,3.7,8.3,3.7c1.5,0,7.9-4.2,10.4-3.6
			c1.3,0.4,3,6.3,2,6.8c-0.8,0.5-10.1,2-13.5,1.4C91.1,337.6,84.8,332.3,84.7,331.1z M93.9,336.9c4.1,0.6,10.9-0.6,11.2-1.1
			c0.4-0.7,0.2-4.4-1-4.4c-2.9,0-8,3.5-9.5,3.4c-3.2-0.4-7.6-3.8-8-3.9c-0.4-0.2-1,0-0.7,0.7C86.3,332.3,92,336.6,93.9,336.9z"/>
		<g>
			<path fill="#F18C00" d="M116.2,408.9c0-0.6-1.1-0.9-0.9-1.9c0.3-1.9,11.8-6.5,17.1-18.5c0.8-1.7,5.4-2.8,3.7-4.8
				c-1.4-1.7-1.8,0.5-3.6,0.7c0,0-40.6,0-40.6,0s-1.5-0.3-1.7-1.9c-0.1-1.4,1.6-8.5-3.6-19.6c-0.8-1.6,9.2-0.5,9.2-4
				c0-0.8-1.1-11.2,7.5-11.2c4.2,0,7.8,3.2,7.8,11c0,15.4-11.7,7.9-13.6,7.9c-1.2,0-2.5,3.2-1.6,4.1c3,3,21.6,11.1,21.6-13.6
				c0-3.5,0.1-15.4-13.9-15.4c-13.5,0-11.1,14.9-11,16.5c0.1,1.5-7,2.3-7.4,1.8c-1-1.5-1.4-1.9-1.5-2.2c0-0.1,0.1-0.3,0.1-0.3
				c2.7-3.1,4.3-6,4.3-11.9c0-6.5-5.9-11.7-13.9-11.7c-7.4,0-16.4,5.6-17.1,8.1c-0.4,1.4,2.5,6.5,3.8,6.4c2.5-0.2,6.4-7.8,13.1-7.8
				c4.7,0,7,2.6,7.1,6.3c0,5.7-6.8,11.1-7,12c-0.2,1.5,1.6,3.9,2.7,3.7c1.5-0.2,3.1-1.7,3.9-2.3c1-0.8,5,6.9,5,11.7
				c0,9.7-4.4,17.1-15.4,17.1c-14,0-15.3-21.7-19.3-23.2c-1.4-0.6-6.3,5.2-5.4,5.8c3.3,2.4,6.2,7.6,6.9,10.2
				c0.7,2.5-1.2,2.7-1.2,2.7h-27c-1.8-0.2-2.5-2.6-3.8-1.3c-2.3,2.2,2.2,2.2,3.3,4.9c4.1,10.3,17,17,17.5,18.8
				c0.3,1.2-0.6,1.4-0.6,2.1c0,0.7,0.8,1,0.8,1h74C115.3,409.9,116.2,409.7,116.2,408.9z"/>
			<path fill="#F18C00" d="M93.9,336.9c4.1,0.6,10.9-0.6,11.2-1.1c0.4-0.7,0.2-4.4-1-4.4c-2.9,0-8,3.5-9.5,3.4
				c-3.2-0.4-7.6-3.8-8-3.9c-0.4-0.2-1,0-0.7,0.7C86.3,332.3,92,336.6,93.9,336.9z"/>
			<path fill="#F18C00" d="M94,330.3c0.9,0.2,2.6-0.3,2.7-1.6c0.2-1.3-0.7-2.1-1.8-2.3c-1.1-0.2-2.1,0.2-2.2,1.5
				C92.6,329.2,93.1,330.2,94,330.3z"/>
		</g>
		<path fill="#571211" d="M95.1,325.1c1.5,0.1,2.7,2.6,2.6,3.7c-0.1,1.2-2.1,2.9-3.7,2.6c-1.7-0.3-2.8-2.6-2.6-3.7
			C91.5,326.6,93.6,325,95.1,325.1z M94,330.3c0.9,0.2,2.6-0.3,2.7-1.6c0.2-1.3-0.7-2.1-1.8-2.3c-1.1-0.2-2.1,0.2-2.2,1.5
			C92.6,329.2,93.1,330.2,94,330.3z"/>
	</g>
</g>
</svg>
